<svg xmlns="http://www.w3.org/2000/svg" viewBox="0 0 64 64" fill="none">
  <defs>
    <!-- Gradient definitions -->
    <linearGradient id="screenGradient" x1="0%" y1="0%" x2="100%" y2="100%">
      <stop offset="0%" style="stop-color:#667eea;stop-opacity:1" />
      <stop offset="100%" style="stop-color:#764ba2;stop-opacity:1" />
    </linearGradient>
    <linearGradient id="standGradient" x1="0%" y1="0%" x2="100%" y2="100%">
      <stop offset="0%" style="stop-color:#f093fb;stop-opacity:1" />
      <stop offset="100%" style="stop-color:#f5576c;stop-opacity:1" />
    </linearGradient>
    <linearGradient id="codeGradient" x1="0%" y1="0%" x2="100%" y2="100%">
      <stop offset="0%" style="stop-color:#4facfe;stop-opacity:1" />
      <stop offset="100%" style="stop-color:#00f2fe;stop-opacity:1" />
    </linearGradient>
    <linearGradient id="bracketGradient" x1="0%" y1="0%" x2="100%" y2="100%">
      <stop offset="0%" style="stop-color:#fa709a;stop-opacity:1" />
      <stop offset="100%" style="stop-color:#fee140;stop-opacity:1" />
    </linearGradient>
  </defs>

  <!-- Monitor screen -->
  <rect x="8" y="12" width="48" height="32" rx="4" ry="4" fill="url(#screenGradient)" stroke="#5a67d8" stroke-width="2"/>

  <!-- Screen inner area -->
  <rect x="12" y="16" width="40" height="24" rx="2" ry="2" fill="#1a202c" opacity="0.8"/>

  <!-- Monitor stand -->
  <rect x="28" y="44" width="8" height="8" rx="1" ry="1" fill="url(#standGradient)"/>
  <rect x="20" y="52" width="24" height="4" rx="2" ry="2" fill="url(#standGradient)"/>

  <!-- HTML brackets -->
  <path d="M16 22 L12 26 L16 30" stroke="url(#bracketGradient)" stroke-width="3" stroke-linecap="round" stroke-linejoin="round" fill="none"/>
  <path d="M48 22 L52 26 L48 30" stroke="url(#bracketGradient)" stroke-width="3" stroke-linecap="round" stroke-linejoin="round" fill="none"/>

  <!-- Code lines -->
  <rect x="20" y="20" width="16" height="2" rx="1" fill="url(#codeGradient)"/>
  <rect x="20" y="24" width="20" height="2" rx="1" fill="url(#codeGradient)"/>
  <rect x="20" y="28" width="12" height="2" rx="1" fill="url(#codeGradient)"/>
  <rect x="20" y="32" width="18" height="2" rx="1" fill="url(#codeGradient)"/>

  <!-- Decorative dots -->
  <circle cx="44" cy="21" r="1.5" fill="#4ade80"/>
  <circle cx="47" cy="21" r="1.5" fill="#fbbf24"/>
  <circle cx="50" cy="21" r="1.5" fill="#f87171"/>

  <!-- Glow effect -->
  <rect x="8" y="12" width="48" height="32" rx="4" ry="4" fill="none" stroke="url(#screenGradient)" stroke-width="1" opacity="0.6"/>
</svg>
